<svg xmlns="http://www.w3.org/2000/svg" viewBox="0 0 690 500">
  <path fill="#1a2d72" fill-rule="evenodd" d="M146 140C158 106 242 106 253 140L397 487Q398 490 394 490L332 490Q328 490 326 486L292 403Q291 400 287 400L113 400Q109 400 108 403L74 486Q72 490 68 490L4 490Q0 490 1.5 486ZM196 189Q200 180 204 189L262 336Q266 346 258 346L142 346Q134 346 137 336Z"/>
  <path fill="#e8282b" d="M423 10Q423 2 431 2L436 2C470 6 492 40 493 90L493 418C496 432 522 434 536 452C540 458 541 466 541 474Q541 490 524 490L462 490Q450 490 440 484C430 478 423 468 423 456Z"/>
  <path fill="#e8282b" transform="translate(136,0)" d="M423 10Q423 2 431 2L436 2C470 6 492 40 493 90L493 418C496 432 522 434 536 452C540 458 541 466 541 474Q541 490 524 490L462 490Q450 490 440 484C430 478 423 468 423 456Z"/>
</svg>
