<svg width="1728" height="972" viewBox="0 0 1728 972" fill="none" xmlns="http://www.w3.org/2000/svg">
<g clip-path="url(#clip0_234_2)">
<line x1="14.5" y1="-2.18557e-08" x2="14.5" y2="972" stroke="#666663"/>
<line x1="1014.5" y1="-2.18557e-08" x2="1014.5" y2="972" stroke="#666663"/>
<line x1="414.5" y1="-2.18557e-08" x2="414.5" y2="972" stroke="#666663"/>
<line x1="1414.5" y1="-2.18557e-08" x2="1414.5" y2="972" stroke="#666663"/>
<line x1="814.5" y1="-2.18557e-08" x2="814.5" y2="972" stroke="#666663"/>
<line x1="1714.5" y1="-2.18557e-08" x2="1714.5" y2="972" stroke="#666663"/>
<line x1="214.5" y1="-2.18557e-08" x2="214.5" y2="972" stroke="#666663"/>
<line x1="1214.5" y1="-2.18557e-08" x2="1214.5" y2="972" stroke="#666663"/>
<line x1="614.5" y1="-2.18557e-08" x2="614.5" y2="972" stroke="#666663"/>
<line x1="1614.5" y1="-2.18557e-08" x2="1614.5" y2="972" stroke="#666663"/>
<line x1="514.5" y1="-2.18557e-08" x2="514.5" y2="972" stroke="#666663"/>
<line x1="1514.5" y1="-2.18557e-08" x2="1514.5" y2="972" stroke="#666663"/>
<line x1="114.5" y1="-2.18557e-08" x2="114.5" y2="972" stroke="#666663"/>
<line x1="1114.5" y1="-2.18557e-08" x2="1114.5" y2="972" stroke="#666663"/>
<line x1="914.5" y1="-2.18557e-08" x2="914.5" y2="972" stroke="#666663"/>
<line x1="714.5" y1="-2.18557e-08" x2="714.5" y2="972" stroke="#666663"/>
<line x1="314.5" y1="-2.18557e-08" x2="314.5" y2="972" stroke="#666663"/>
<line x1="1314.5" y1="-2.18557e-08" x2="1314.5" y2="972" stroke="#666663"/>
<line x1="4.44313e-08" y1="935.502" x2="1728" y2="935.502" stroke="#666663"/>
<line x1="4.44313e-08" y1="635.5" x2="1728" y2="635.5" stroke="#666663"/>
<line x1="4.44313e-08" y1="435.502" x2="1728" y2="435.502" stroke="#666663"/>
<line x1="4.44313e-08" y1="135.5" x2="1728" y2="135.5" stroke="#666663"/>
<line x1="4.44313e-08" y1="835.502" x2="1728" y2="835.502" stroke="#666663"/>
<line x1="4.44313e-08" y1="535.5" x2="1728" y2="535.5" stroke="#666663"/>
<line x1="4.44313e-08" y1="35.5" x2="1728" y2="35.5001" stroke="#666663"/>
<line x1="4.44313e-08" y1="735.501" x2="1728" y2="735.501" stroke="#666663"/>
<line x1="4.44313e-08" y1="335.502" x2="1728" y2="335.502" stroke="#666663"/>
<line x1="4.44313e-08" y1="235.501" x2="1728" y2="235.501" stroke="#666663"/>
</g>
<defs>
<clipPath id="clip0_234_2">
<rect width="1728" height="972" fill="white"/>
</clipPath>
</defs>
</svg>
