<svg xmlns="http://www.w3.org/2000/svg" fill="none" viewBox="0 0 1728 972">
  <path stroke="#454543" stroke-dasharray="2 2" stroke-width=".5" d="M0 295.751h1728M0 775.752h1728M0 455.752h1728M0 155.75h1728M0 315.752h1728M0 795.752h1728M0 215.751h1728M0 695.751h1728M0 375.752h1728M0 855.752h1728M0 75.75h1728M0 555.75h1728M0 275.751h1728M0 755.751h1728M0 915.752h1728M0 495.753h1728M0 615.75h1728M0 195.751h1728M0 675.751h1728M0 355.752h1728M0 55.75h1728M0 15.75h1728M0 515.75h1728M0 255.751h1728M0 415.752h1728M0 895.752h1728M0 475.752h1728M0 955.752h1728M0 115.75h1728M0 595.75h1728M0 175.751h1728M0 655.751h1728M0 815.752h1728M854.25 0v972M174.25 0v972M334.25 0v972M1174.25 0v972M494.25 0v972M1334.25 0v972M654.25 0v972M1494.25 0v972M94.25 0v972M934.25 0v972M254.25 0v972M1094.25 0v972M1254.25 0v972M574.25 0v972M734.25 0v972M1574.25 0v972M1654.25 0v972M54.25 0v972M894.25 0v972M1054.25 0v972M374.25 0v972M534.25 0v972M1374.25 0v972M694.25 0v972M1534.25 0v972M134.25 0v972M974.25 0v972M294.25 0v972M1134.25 0v972M454.25 0v972M1294.25 0v972M1454.25 0v972M774.25 0v972M1674.25 0v972M34.25 0v972M874.25 0v972M194.25 0v972M1034.25 0v972M354.25 0v972M1194.25 0v972M1354.25 0v972M674.25 0v972M954.25 0v972M274.25 0v972M434.25 0v972M1274.25 0v972M594.25 0v972M1434.25 0v972M754.25 0v972M1594.25 0v972M834.25 0v972M1674.25 0v972M74.25 0v972M234.25 0v972M1074.25 0v972M394.25 0v972M1234.25 0v972M554.25 0v972M1394.25 0v972M1554.25 0v972M154.25 0v972M994.25 0v972M1154.25 0v972M474.25 0v972M634.25 0v972M1474.25 0v972M794.25 0v972M1634.25 0v972M1694.25 0v972"/>
  <path stroke="#666663" d="M0 935.502h1728M0 635.5h1728M0 435.502h1728M0 135.5h1728M0 835.502h1728M0 535.5h1728M0 35.5h1728M0 735.501h1728M0 335.502h1728M14.5 0v972M1014.5 0v972M414.5 0v972M1414.5 0v972M814.5 0v972M1714.5 0v972M214.5 0v972M1214.5 0v972M614.5 0v972M1614.5 0v972M514.5 0v972M1514.5 0v972M114.5 0v972M1114.5 0v972M914.5 0v972M714.5 0v972M314.5 0v972M1314.5 0v972M0 235.501h1728"/>
  <path stroke="#454543" stroke-dasharray="2 2" stroke-width=".5" d="M0 715.751h1728M0 395.752h1728M0 875.752h1728M0 95.75h1728M0 575.75h1728"/>
</svg>
