<svg xmlns="http://www.w3.org/2000/svg" width="800" height="750" viewBox="0 0 800 750">
  <defs>
    <radialGradient id="g" cx="50%" cy="18%" r="90%">
      <stop offset="0%" stop-color="#333331"/>
      <stop offset="55%" stop-color="#262624"/>
      <stop offset="100%" stop-color="#1d1d1c"/>
    </radialGradient>
    <linearGradient id="floor" x1="0" y1="0" x2="0" y2="1">
      <stop offset="0%" stop-color="#ffffff" stop-opacity="0"/>
      <stop offset="100%" stop-color="#ffffff" stop-opacity="0.05"/>
    </linearGradient>
  </defs>
  <rect width="800" height="750" fill="url(#g)"/>
  <rect y="540" width="800" height="210.00000000000003" fill="url(#floor)"/>
  <ellipse cx="400" cy="585" rx="240" ry="15" fill="#000" opacity="0.35"/>
  <g transform="translate(73.91304347826087 18.913043478260875) scale(1.6304347826086956)">
    <g fill="none" stroke="#9a9a9a" stroke-width="3" stroke-linejoin="round" stroke-linecap="round">
      <rect x="60" y="140" width="196" height="120" rx="6"/>
      <path d="M256 176 L308 176 L336 216 L336 260 L256 260"/>
      <path d="M268 190 L300 190 L316 216 L268 216 Z" stroke="#5c5c5c"/>
      <circle cx="108" cy="282" r="22"/>
      <circle cx="170" cy="282" r="22"/>
      <circle cx="296" cy="282" r="22"/>
      <path d="M84 176 L232 176 M84 206 L232 206 M84 236 L232 236" stroke="#5c5c5c"/>
    </g>
    <circle cx="336" cy="238" r="4" fill="#c496ff"/></g>
  <text x="48" y="697.5" font-family="ui-monospace, 'JetBrains Mono', monospace" font-size="22" letter-spacing="2" fill="#7d7d7d">ПОСТАВКИ</text>
  <text x="48" y="723.75" font-family="ui-monospace, 'JetBrains Mono', monospace" font-size="16" letter-spacing="1.5" fill="#565656">МАГИСТРАЛЬНЫЕ ПЕРЕВОЗКИ</text>
</svg>