<svg xmlns="http://www.w3.org/2000/svg" width="800" height="1000" viewBox="0 0 800 1000">
  <defs>
    <radialGradient id="g" cx="50%" cy="18%" r="90%">
      <stop offset="0%" stop-color="#333331"/>
      <stop offset="55%" stop-color="#262624"/>
      <stop offset="100%" stop-color="#1d1d1c"/>
    </radialGradient>
    <linearGradient id="floor" x1="0" y1="0" x2="0" y2="1">
      <stop offset="0%" stop-color="#ffffff" stop-opacity="0"/>
      <stop offset="100%" stop-color="#ffffff" stop-opacity="0.05"/>
    </linearGradient>
  </defs>
  <rect width="800" height="1000" fill="url(#g)"/>
  <rect y="720" width="800" height="280" fill="url(#floor)"/>
  <ellipse cx="400" cy="780" rx="240" ry="20" fill="#000" opacity="0.35"/>
  <g transform="translate(52.17391304347825 112.17391304347825) scale(1.7391304347826086)">
    <g fill="none" stroke="#9a9a9a" stroke-width="3" stroke-linejoin="round" stroke-linecap="round">
      <path d="M120 130 L120 330 Q120 342 132 342 L268 342 Q280 342 280 330 L280 150 L250 118 L138 118 Q120 118 120 130 Z"/>
      <path d="M160 118 L160 92 Q160 84 168 84 L200 84 Q208 84 208 92 L208 118"/>
      <rect x="222" y="88" width="34" height="26" rx="4"/>
      <path d="M150 175 L250 285 M250 175 L150 285"/>
      <rect x="150" y="175" width="100" height="110" rx="6"/>
      <path d="M280 150 L250 118" stroke="#5c5c5c"/>
    </g>
    <circle cx="239" cy="101" r="4" fill="#c496ff"/></g>
  <text x="48" y="930" font-family="ui-monospace, 'JetBrains Mono', monospace" font-size="22" letter-spacing="2" fill="#7d7d7d">ТЕХНИЧЕСКИЕ ЖИДКОСТИ</text>
  <text x="48" y="965" font-family="ui-monospace, 'JetBrains Mono', monospace" font-size="16" letter-spacing="1.5" fill="#565656">КАНИСТРА · 4 Л</text>
</svg>