<svg xmlns="http://www.w3.org/2000/svg" width="1200" height="900" viewBox="0 0 1200 900">
  <defs>
    <radialGradient id="g" cx="50%" cy="18%" r="90%">
      <stop offset="0%" stop-color="#333331"/>
      <stop offset="55%" stop-color="#262624"/>
      <stop offset="100%" stop-color="#1d1d1c"/>
    </radialGradient>
    <linearGradient id="floor" x1="0" y1="0" x2="0" y2="1">
      <stop offset="0%" stop-color="#ffffff" stop-opacity="0"/>
      <stop offset="100%" stop-color="#ffffff" stop-opacity="0.05"/>
    </linearGradient>
  </defs>
  <rect width="1200" height="900" fill="url(#g)"/>
  <rect y="648" width="1200" height="252.00000000000003" fill="url(#floor)"/>
  <ellipse cx="600" cy="702" rx="360" ry="18" fill="#000" opacity="0.35"/>
  <g transform="translate(208.69565217391306 22.69565217391306) scale(1.9565217391304348)">
    <g fill="none" stroke="#9a9a9a" stroke-width="3">
      <circle cx="200" cy="205" r="128"/>
      <circle cx="200" cy="205" r="94" stroke="#5c5c5c"/>
      <circle cx="200" cy="205" r="52"/>
      <circle cx="200" cy="205" r="20"/>
      <circle cx="200" cy="139" r="8"/><circle cx="263" cy="185" r="8"/><circle cx="239" cy="259" r="8"/><circle cx="161" cy="259" r="8"/><circle cx="137" cy="185" r="8"/>
      <path d="M200 77 A128 128 0 0 1 328 205" stroke="#c496ff" stroke-width="2"/>
    </g></g>
  <text x="72" y="837" font-family="ui-monospace, 'JetBrains Mono', monospace" font-size="34" letter-spacing="2" fill="#7d7d7d">АВТОКОМПОНЕНТЫ</text>
  <text x="72" y="868.5" font-family="ui-monospace, 'JetBrains Mono', monospace" font-size="24" letter-spacing="1.5" fill="#565656">ДЕТАЛИ ШАССИ</text>
</svg>