<svg xmlns="http://www.w3.org/2000/svg" width="1200" height="900" viewBox="0 0 1200 900">
  <defs>
    <radialGradient id="g" cx="50%" cy="18%" r="90%">
      <stop offset="0%" stop-color="#333331"/>
      <stop offset="55%" stop-color="#262624"/>
      <stop offset="100%" stop-color="#1d1d1c"/>
    </radialGradient>
    <linearGradient id="floor" x1="0" y1="0" x2="0" y2="1">
      <stop offset="0%" stop-color="#ffffff" stop-opacity="0"/>
      <stop offset="100%" stop-color="#ffffff" stop-opacity="0.05"/>
    </linearGradient>
  </defs>
  <rect width="1200" height="900" fill="url(#g)"/>
  <rect y="648" width="1200" height="252.00000000000003" fill="url(#floor)"/>
  <ellipse cx="600" cy="702" rx="360" ry="18" fill="#000" opacity="0.35"/>
  <g transform="translate(208.69565217391306 22.69565217391306) scale(1.9565217391304348)">
    <g fill="none" stroke="#9a9a9a" stroke-width="3" stroke-linejoin="round" stroke-linecap="round">
      <rect x="60" y="140" width="196" height="120" rx="6"/>
      <path d="M256 176 L308 176 L336 216 L336 260 L256 260"/>
      <path d="M268 190 L300 190 L316 216 L268 216 Z" stroke="#5c5c5c"/>
      <circle cx="108" cy="282" r="22"/>
      <circle cx="170" cy="282" r="22"/>
      <circle cx="296" cy="282" r="22"/>
      <path d="M84 176 L232 176 M84 206 L232 206 M84 236 L232 236" stroke="#5c5c5c"/>
    </g>
    <circle cx="336" cy="238" r="4" fill="#c496ff"/></g>
  <text x="72" y="837" font-family="ui-monospace, 'JetBrains Mono', monospace" font-size="34" letter-spacing="2" fill="#7d7d7d">ЛОГИСТИКА</text>
  <text x="72" y="868.5" font-family="ui-monospace, 'JetBrains Mono', monospace" font-size="24" letter-spacing="1.5" fill="#565656">ФЕДЕРАЛЬНЫЕ ПОСТАВКИ</text>
</svg>