<svg xmlns="http://www.w3.org/2000/svg" width="1200" height="900" viewBox="0 0 1200 900">
  <defs>
    <radialGradient id="g" cx="50%" cy="18%" r="90%">
      <stop offset="0%" stop-color="#333331"/>
      <stop offset="55%" stop-color="#262624"/>
      <stop offset="100%" stop-color="#1d1d1c"/>
    </radialGradient>
    <linearGradient id="floor" x1="0" y1="0" x2="0" y2="1">
      <stop offset="0%" stop-color="#ffffff" stop-opacity="0"/>
      <stop offset="100%" stop-color="#ffffff" stop-opacity="0.05"/>
    </linearGradient>
  </defs>
  <rect width="1200" height="900" fill="url(#g)"/>
  <rect y="648" width="1200" height="252.00000000000003" fill="url(#floor)"/>
  <ellipse cx="600" cy="702" rx="360" ry="18" fill="#000" opacity="0.35"/>
  <g transform="translate(208.69565217391306 22.69565217391306) scale(1.9565217391304348)">
    <g fill="none" stroke="#9a9a9a" stroke-width="3" stroke-linecap="round">
      <ellipse cx="200" cy="120" rx="70" ry="18"/>
      <path d="M130 120 L130 280 M270 120 L270 280"/>
      <path d="M130 280 Q130 298 200 298 Q270 298 270 280"/>
      <path d="M148 130 L148 284 M174 136 L174 292 M200 138 L200 294 M226 136 L226 292 M252 130 L252 284" stroke="#5c5c5c"/>
      <ellipse cx="200" cy="112" rx="34" ry="9"/>
      <path d="M200 298 L200 330 M180 316 L220 316"/>
    </g>
    <circle cx="200" cy="112" r="4" fill="#a1d8c0"/></g>
  <text x="72" y="837" font-family="ui-monospace, 'JetBrains Mono', monospace" font-size="34" letter-spacing="2" fill="#7d7d7d">РАСХОДНИКИ</text>
  <text x="72" y="868.5" font-family="ui-monospace, 'JetBrains Mono', monospace" font-size="24" letter-spacing="1.5" fill="#565656">ФИЛЬТРУЮЩИЕ ЭЛЕМЕНТЫ</text>
</svg>