<svg xmlns="http://www.w3.org/2000/svg" width="1200" height="900" viewBox="0 0 1200 900">
  <defs>
    <radialGradient id="g" cx="50%" cy="18%" r="90%">
      <stop offset="0%" stop-color="#333331"/>
      <stop offset="55%" stop-color="#262624"/>
      <stop offset="100%" stop-color="#1d1d1c"/>
    </radialGradient>
    <linearGradient id="floor" x1="0" y1="0" x2="0" y2="1">
      <stop offset="0%" stop-color="#ffffff" stop-opacity="0"/>
      <stop offset="100%" stop-color="#ffffff" stop-opacity="0.05"/>
    </linearGradient>
  </defs>
  <rect width="1200" height="900" fill="url(#g)"/>
  <rect y="648" width="1200" height="252.00000000000003" fill="url(#floor)"/>
  <ellipse cx="600" cy="702" rx="360" ry="18" fill="#000" opacity="0.35"/>
  <g transform="translate(208.69565217391306 22.69565217391306) scale(1.9565217391304348)">
    <g fill="none" stroke="#9a9a9a" stroke-width="3" stroke-linecap="round">
      <ellipse cx="200" cy="110" rx="88" ry="24"/>
      <path d="M112 110 L112 310 M288 110 L288 310"/>
      <path d="M112 310 Q112 334 200 334 Q288 334 288 310"/>
      <path d="M112 165 Q112 189 200 189 Q288 189 288 165" stroke="#5c5c5c"/>
      <path d="M112 245 Q112 269 200 269 Q288 269 288 245" stroke="#5c5c5c"/>
      <ellipse cx="172" cy="106" rx="12" ry="5"/>
    </g>
    <circle cx="236" cy="108" r="4" fill="#a1d8c0"/></g>
  <text x="72" y="837" font-family="ui-monospace, 'JetBrains Mono', monospace" font-size="34" letter-spacing="2" fill="#7d7d7d">ПРОМЫШЛЕННОСТЬ</text>
  <text x="72" y="868.5" font-family="ui-monospace, 'JetBrains Mono', monospace" font-size="24" letter-spacing="1.5" fill="#565656">СОЖ И ИНДУСТРИАЛЬНЫЕ МАСЛА</text>
</svg>