<svg xmlns="http://www.w3.org/2000/svg" width="1600" height="900" viewBox="0 0 1600 900">
  <defs>
    <radialGradient id="g" cx="50%" cy="18%" r="90%">
      <stop offset="0%" stop-color="#333331"/>
      <stop offset="55%" stop-color="#262624"/>
      <stop offset="100%" stop-color="#1d1d1c"/>
    </radialGradient>
    <linearGradient id="floor" x1="0" y1="0" x2="0" y2="1">
      <stop offset="0%" stop-color="#ffffff" stop-opacity="0"/>
      <stop offset="100%" stop-color="#ffffff" stop-opacity="0.05"/>
    </linearGradient>
  </defs>
  <rect width="1600" height="900" fill="url(#g)"/>
  <rect y="648" width="1600" height="252.00000000000003" fill="url(#floor)"/>
  <ellipse cx="800" cy="702" rx="480" ry="18" fill="#000" opacity="0.35"/>
  <g transform="translate(408.69565217391306 22.69565217391306) scale(1.9565217391304348)">
    <g fill="none" stroke="#9a9a9a" stroke-width="3" stroke-linejoin="round" stroke-linecap="round">
      <rect x="88" y="120" width="150" height="200" rx="8"/>
      <path d="M112 160 L214 160" stroke="#5c5c5c"/>
      <rect x="128" y="190" width="70" height="52" rx="4"/>
      <path d="M163 242 L163 286 M143 286 L183 286"/>
      <rect x="258" y="170" width="60" height="150" rx="6"/>
      <path d="M270 196 L306 196 M270 216 L306 216" stroke="#5c5c5c"/>
      <circle cx="288" cy="266" r="14" stroke="#5c5c5c"/>
      <path d="M68 320 L340 320"/>
    </g>
    <circle cx="163" cy="216" r="4" fill="#a1d8c0"/></g>
  <text x="96" y="837" font-family="ui-monospace, 'JetBrains Mono', monospace" font-size="45" letter-spacing="2" fill="#7d7d7d">ПРОИЗВОДСТВО</text>
  <text x="96" y="868.5" font-family="ui-monospace, 'JetBrains Mono', monospace" font-size="32" letter-spacing="1.5" fill="#565656">ПРОИЗВОДСТВЕННАЯ ПЛОЩАДКА</text>
</svg>