<svg xmlns="http://www.w3.org/2000/svg" width="1200" height="900" viewBox="0 0 1200 900">
  <defs>
    <radialGradient id="g" cx="50%" cy="18%" r="90%">
      <stop offset="0%" stop-color="#333331"/>
      <stop offset="55%" stop-color="#262624"/>
      <stop offset="100%" stop-color="#1d1d1c"/>
    </radialGradient>
    <linearGradient id="floor" x1="0" y1="0" x2="0" y2="1">
      <stop offset="0%" stop-color="#ffffff" stop-opacity="0"/>
      <stop offset="100%" stop-color="#ffffff" stop-opacity="0.05"/>
    </linearGradient>
  </defs>
  <rect width="1200" height="900" fill="url(#g)"/>
  <rect y="648" width="1200" height="252.00000000000003" fill="url(#floor)"/>
  <ellipse cx="600" cy="702" rx="360" ry="18" fill="#000" opacity="0.35"/>
  <g transform="translate(208.69565217391306 22.69565217391306) scale(1.9565217391304348)">
    <g fill="none" stroke="#9a9a9a" stroke-width="3" stroke-linejoin="round" stroke-linecap="round">
      <path d="M120 130 L120 330 Q120 342 132 342 L268 342 Q280 342 280 330 L280 150 L250 118 L138 118 Q120 118 120 130 Z"/>
      <path d="M160 118 L160 92 Q160 84 168 84 L200 84 Q208 84 208 92 L208 118"/>
      <rect x="222" y="88" width="34" height="26" rx="4"/>
      <path d="M150 175 L250 285 M250 175 L150 285"/>
      <rect x="150" y="175" width="100" height="110" rx="6"/>
      <path d="M280 150 L250 118" stroke="#5c5c5c"/>
    </g>
    <circle cx="239" cy="101" r="4" fill="#c496ff"/></g>
  <text x="72" y="837" font-family="ui-monospace, 'JetBrains Mono', monospace" font-size="34" letter-spacing="2" fill="#7d7d7d">ПРОДУКЦИЯ</text>
  <text x="72" y="868.5" font-family="ui-monospace, 'JetBrains Mono', monospace" font-size="24" letter-spacing="1.5" fill="#565656">ТЕХНИЧЕСКИЕ ЖИДКОСТИ</text>
</svg>