<svg xmlns="http://www.w3.org/2000/svg" width="1200" height="900" viewBox="0 0 1200 900">
  <defs>
    <radialGradient id="g" cx="50%" cy="18%" r="90%">
      <stop offset="0%" stop-color="#333331"/>
      <stop offset="55%" stop-color="#262624"/>
      <stop offset="100%" stop-color="#1d1d1c"/>
    </radialGradient>
    <linearGradient id="floor" x1="0" y1="0" x2="0" y2="1">
      <stop offset="0%" stop-color="#ffffff" stop-opacity="0"/>
      <stop offset="100%" stop-color="#ffffff" stop-opacity="0.05"/>
    </linearGradient>
  </defs>
  <rect width="1200" height="900" fill="url(#g)"/>
  <rect y="648" width="1200" height="252.00000000000003" fill="url(#floor)"/>
  <ellipse cx="600" cy="702" rx="360" ry="18" fill="#000" opacity="0.35"/>
  <g transform="translate(208.69565217391306 22.69565217391306) scale(1.9565217391304348)">
    <g fill="none" stroke="#9a9a9a" stroke-width="3" stroke-linejoin="round">
      <path d="M200 96 L288 136 L288 232 L200 272 L112 232 L112 136 Z"/>
      <path d="M200 96 L200 176 M112 136 L200 176 L288 136" stroke="#5c5c5c"/>
      <path d="M200 176 L200 272"/>
      <path d="M112 232 L112 296 L200 336 L288 296 L288 232" stroke="#5c5c5c"/>
      <path d="M200 272 L200 336" stroke="#5c5c5c"/>
      <path d="M156 116 L244 156" stroke="#c496ff" stroke-width="2"/>
    </g></g>
  <text x="72" y="837" font-family="ui-monospace, 'JetBrains Mono', monospace" font-size="34" letter-spacing="2" fill="#7d7d7d">ДИСТРИБУЦИЯ</text>
  <text x="72" y="868.5" font-family="ui-monospace, 'JetBrains Mono', monospace" font-size="24" letter-spacing="1.5" fill="#565656">ТОВАРНЫЕ НАПРАВЛЕНИЯ</text>
</svg>