<svg xmlns="http://www.w3.org/2000/svg" width="1200" height="900" viewBox="0 0 1200 900">
  <defs>
    <radialGradient id="g" cx="50%" cy="18%" r="90%">
      <stop offset="0%" stop-color="#333331"/>
      <stop offset="55%" stop-color="#262624"/>
      <stop offset="100%" stop-color="#1d1d1c"/>
    </radialGradient>
    <linearGradient id="floor" x1="0" y1="0" x2="0" y2="1">
      <stop offset="0%" stop-color="#ffffff" stop-opacity="0"/>
      <stop offset="100%" stop-color="#ffffff" stop-opacity="0.05"/>
    </linearGradient>
  </defs>
  <rect width="1200" height="900" fill="url(#g)"/>
  <rect y="648" width="1200" height="252.00000000000003" fill="url(#floor)"/>
  <ellipse cx="600" cy="702" rx="360" ry="18" fill="#000" opacity="0.35"/>
  <g transform="translate(208.69565217391306 22.69565217391306) scale(1.9565217391304348)">
    <g fill="none" stroke="#9a9a9a" stroke-width="3" stroke-linejoin="round" stroke-linecap="round">
      <rect x="176" y="70" width="48" height="24" rx="4"/>
      <path d="M182 94 L182 118 Q142 140 142 178 L142 322 Q142 334 154 334 L246 334 Q258 334 258 322 L258 178 Q258 140 218 118 L218 94"/>
      <rect x="158" y="196" width="84" height="96" rx="6" stroke="#5c5c5c"/>
      <path d="M170 224 L230 224 M170 244 L230 244 M170 264 L206 264" stroke="#5c5c5c"/>
    </g>
    <circle cx="200" cy="82" r="4" fill="#c496ff"/></g>
  <text x="72" y="837" font-family="ui-monospace, 'JetBrains Mono', monospace" font-size="34" letter-spacing="2" fill="#7d7d7d">МАСЛА</text>
  <text x="72" y="868.5" font-family="ui-monospace, 'JetBrains Mono', monospace" font-size="24" letter-spacing="1.5" fill="#565656">ЛИНЕЙКА ПРОДУКЦИИ</text>
</svg>